<svg width="15" height="12" viewBox="0 0 15 12" fill="none" xmlns="http://www.w3.org/2000/svg">
<path fill-rule="evenodd" clip-rule="evenodd" d="M8.40728 10.9778L8.46967 11.0441C8.74003 11.2975 9.16546 11.317 9.45967 11.1026L9.53033 11.0441L14.7803 6.12218L14.8114 6.09128L14.8527 6.04357L14.9065 5.96536L14.9466 5.8861L14.9731 5.81203L14.9948 5.70804L15 5.625L14.9979 5.5721L14.9848 5.48386L14.9627 5.40552L14.9297 5.32742L14.8905 5.25888L14.8352 5.18523L14.7803 5.12782L9.53033 0.20594C9.23744 -0.0686474 8.76256 -0.0686474 8.46967 0.20594C8.19931 0.459405 8.17851 0.85824 8.40728 1.13407L8.46967 1.20031L12.438 4.92188L0.75 4.92187C0.335786 4.92187 0 5.23667 0 5.625C0 6.01333 0.335786 6.32812 0.75 6.32812L12.4395 6.32812L8.46967 10.0497C8.19931 10.3032 8.17851 10.702 8.40728 10.9778L8.46967 11.0441L8.40728 10.9778Z" fill="white"/>
</svg>
