<svg width="15" height="12" viewBox="0 0 15 12" fill="none" xmlns="http://www.w3.org/2000/svg">
<path fill-rule="evenodd" clip-rule="evenodd" d="M6.59272 0.27218L6.53033 0.205941C6.25997 -0.0475246 5.83454 -0.0670222 5.54033 0.147448L5.46967 0.205941L0.21967 5.12782L0.188622 5.15872L0.147251 5.20643L0.0935034 5.28464L0.0534191 5.3639L0.0268838 5.43797L0.00518042 5.54196L0 5.625L0.00209087 5.6779L0.0151801 5.76614L0.0373036 5.84448L0.0702551 5.92258L0.109497 5.99112L0.164766 6.06477L0.21967 6.12218L5.46967 11.0441C5.76256 11.3186 6.23744 11.3186 6.53033 11.0441C6.80069 10.7906 6.82149 10.3918 6.59272 10.1159L6.53033 10.0497L2.562 6.32812H14.25C14.6642 6.32812 15 6.01333 15 5.625C15 5.23667 14.6642 4.92188 14.25 4.92188H2.5605L6.53033 1.20031C6.80069 0.946844 6.82149 0.54801 6.59272 0.27218L6.53033 0.205941L6.59272 0.27218Z" fill="white"/>
</svg>
