<svg width="14" height="14" viewBox="0 0 14 14" fill="none" xmlns="http://www.w3.org/2000/svg">
<path fill-rule="evenodd" clip-rule="evenodd" d="M2.91663 12.8334C1.95013 12.8334 1.16663 12.0499 1.16663 11.0834V4.08335C1.16663 3.11686 1.95013 2.33335 2.91663 2.33335H3.49996V1.75002C3.49996 1.42785 3.76113 1.16669 4.08329 1.16669C4.40546 1.16669 4.66663 1.42785 4.66663 1.75002V2.33335H9.33329V1.75002C9.33329 1.42785 9.59446 1.16669 9.91663 1.16669C10.2388 1.16669 10.5 1.42785 10.5 1.75002V2.33335H11.0833C12.0498 2.33335 12.8333 3.11686 12.8333 4.08335V11.0834C12.8333 12.0499 12.0498 12.8334 11.0833 12.8334H2.91663ZM4.66663 9.91669H2.33329V11.0834C2.33329 11.4055 2.59446 11.6667 2.91663 11.6667H4.66663V9.91669ZM8.16663 9.91669H5.83329V11.6667H8.16663V9.91669ZM11.6666 9.91669H9.33329V11.6667H11.0833C11.4055 11.6667 11.6666 11.4055 11.6666 11.0834V9.91669ZM4.66663 7.00002H2.33329V8.75002H4.66663V7.00002ZM8.16663 7.00002H5.83329V8.75002H8.16663V7.00002ZM11.6666 7.00002H9.33329V8.75002H11.6666V7.00002ZM3.49996 3.50002H2.91663C2.59446 3.50002 2.33329 3.76119 2.33329 4.08335V5.83335H11.6666V4.08335C11.6666 3.76119 11.4055 3.50002 11.0833 3.50002H10.5V4.08335C10.5 4.40552 10.2388 4.66669 9.91663 4.66669C9.59446 4.66669 9.33329 4.40552 9.33329 4.08335V3.50002H4.66663V4.08335C4.66663 4.40552 4.40546 4.66669 4.08329 4.66669C3.76113 4.66669 3.49996 4.40552 3.49996 4.08335V3.50002Z" fill="black"/>
</svg>
