<svg width="15" height="15" viewBox="0 0 15 15" fill="none" xmlns="http://www.w3.org/2000/svg">
<path d="M7.5 0C9.48912 0 11.3968 0.790176 12.8033 2.1967C14.2098 3.60322 15 5.51088 15 7.5C15 9.48912 14.2098 11.3968 12.8033 12.8033C11.3968 14.2098 9.48912 15 7.5 15C5.51088 15 3.60322 14.2098 2.1967 12.8033C0.790176 11.3968 0 9.48912 0 7.5C0 5.51088 0.790176 3.60322 2.1967 2.1967C3.60322 0.790176 5.51088 0 7.5 0ZM6.85714 6.85714H4.39286C4.22236 6.85714 4.05885 6.92487 3.93829 7.04543C3.81773 7.16599 3.75 7.3295 3.75 7.5C3.75 7.6705 3.81773 7.83401 3.93829 7.95457C4.05885 8.07513 4.22236 8.14286 4.39286 8.14286H6.85714V10.6071C6.85714 10.7776 6.92487 10.9412 7.04543 11.0617C7.16599 11.1823 7.3295 11.25 7.5 11.25C7.6705 11.25 7.83401 11.1823 7.95457 11.0617C8.07513 10.9412 8.14286 10.7776 8.14286 10.6071V8.14286H10.6071C10.7776 8.14286 10.9412 8.07513 11.0617 7.95457C11.1823 7.83401 11.25 7.6705 11.25 7.5C11.25 7.3295 11.1823 7.16599 11.0617 7.04543C10.9412 6.92487 10.7776 6.85714 10.6071 6.85714H8.14286V4.39286C8.14286 4.22236 8.07513 4.05885 7.95457 3.93829C7.83401 3.81773 7.6705 3.75 7.5 3.75C7.3295 3.75 7.16599 3.81773 7.04543 3.93829C6.92487 4.05885 6.85714 4.22236 6.85714 4.39286V6.85714Z" fill="black"/>
</svg>
