<svg width="19" height="14" viewBox="0 0 19 14" fill="none" xmlns="http://www.w3.org/2000/svg">
<mask id="path-1-outside-1_10_2" maskUnits="userSpaceOnUse" x="0" y="0" width="19" height="14" fill="black">
<rect fill="white" width="19" height="14"/>
<path d="M17.8869 7.74383C17.8268 7.78896 17.7512 7.80837 17.6768 7.7978C17.6024 7.78723 17.5353 7.74754 17.4901 7.68745C17.1222 7.19308 16.6434 6.79198 16.0922 6.51642C15.5411 6.24086 14.9329 6.09854 14.3166 6.10093C14.2415 6.10093 14.1694 6.07108 14.1163 6.01794C14.0632 5.96481 14.0333 5.89274 14.0333 5.8176C14.0333 5.74245 14.0632 5.67039 14.1163 5.61725C14.1694 5.56412 14.2415 5.53427 14.3166 5.53427C14.6929 5.53419 15.0614 5.42706 15.3791 5.22539C15.6968 5.02373 15.9506 4.73585 16.1108 4.39536C16.271 4.05488 16.331 3.67584 16.2839 3.30251C16.2368 2.92918 16.0844 2.57697 15.8446 2.287C15.6048 1.99702 15.2874 1.78125 14.9295 1.66489C14.5717 1.54852 14.1881 1.53636 13.8236 1.62982C13.4591 1.72328 13.1287 1.9185 12.871 2.1927C12.6133 2.4669 12.4389 2.80875 12.3682 3.17834C12.3542 3.25217 12.3115 3.3174 12.2493 3.3597C12.1872 3.40199 12.1109 3.41787 12.037 3.40386C11.9632 3.38984 11.898 3.34707 11.8557 3.28496C11.8134 3.22284 11.7975 3.14647 11.8115 3.07265C11.8911 2.6553 12.0736 2.26444 12.3426 1.93558C12.6116 1.60672 12.9585 1.35027 13.3518 1.18954C13.745 1.02881 14.1722 0.96888 14.5946 1.0152C15.0169 1.06153 15.4209 1.21264 15.77 1.4548C16.1191 1.69696 16.4022 2.0225 16.5935 2.40186C16.7848 2.78121 16.8783 3.20234 16.8654 3.62701C16.8526 4.05167 16.7339 4.4664 16.5201 4.83353C16.3063 5.20065 16.0041 5.50854 15.641 5.72921C16.5615 6.00879 17.3683 6.57578 17.9432 7.34713C17.9655 7.37688 17.9818 7.41073 17.9911 7.44677C18.0003 7.4828 18.0024 7.52031 17.9972 7.55715C17.992 7.59398 17.9795 7.62943 17.9606 7.66146C17.9417 7.69349 17.9166 7.72148 17.8869 7.74383ZM13.8322 12.7766C13.8485 12.8101 13.8581 12.8464 13.8603 12.8836C13.8626 12.9207 13.8575 12.9579 13.8454 12.9931C13.8333 13.0283 13.8143 13.0607 13.7897 13.0886C13.765 13.1164 13.7351 13.1391 13.7016 13.1554C13.6682 13.1717 13.6319 13.1813 13.5947 13.1835C13.5576 13.1858 13.5204 13.1807 13.4852 13.1686C13.45 13.1565 13.4176 13.1375 13.3897 13.1129C13.3619 13.0882 13.3391 13.0583 13.3229 13.0248C12.9739 12.308 12.4304 11.7038 11.7544 11.2811C11.0785 10.8583 10.2973 10.6342 9.50006 10.6342C8.70282 10.6342 7.92163 10.8583 7.24568 11.2811C6.56973 11.7038 6.02625 12.308 5.67727 13.0248C5.64436 13.0924 5.58596 13.1441 5.51493 13.1686C5.44389 13.1931 5.36603 13.1883 5.29849 13.1554C5.23094 13.1225 5.17923 13.0641 5.15474 12.9931C5.13025 12.922 5.13498 12.8442 5.16789 12.7766C5.45355 12.1842 5.85828 11.657 6.3568 11.2279C6.85533 10.7988 7.43696 10.4772 8.06537 10.2829C7.44559 9.96156 6.95167 9.44139 6.66279 8.80582C6.3739 8.17025 6.30678 7.45609 6.47218 6.77782C6.63758 6.09955 7.02592 5.49646 7.57496 5.06522C8.12399 4.63398 8.80192 4.39958 9.50006 4.39958C10.1982 4.39958 10.8761 4.63398 11.4252 5.06522C11.9742 5.49646 12.3625 6.09955 12.5279 6.77782C12.6933 7.45609 12.6262 8.17025 12.3373 8.80582C12.0484 9.44139 11.5545 9.96156 10.9348 10.2829C11.5632 10.4772 12.1448 10.7989 12.6433 11.2279C13.1418 11.657 13.5466 12.1842 13.8322 12.7766ZM9.50006 10.0675C10.0044 10.0675 10.4974 9.91797 10.9167 9.63778C11.3361 9.35759 11.6629 8.95934 11.8559 8.49339C12.0489 8.02745 12.0994 7.51474 12.001 7.0201C11.9026 6.52545 11.6598 6.07109 11.3032 5.71448C10.9465 5.35786 10.4922 5.115 9.99753 5.01661C9.50289 4.91822 8.99018 4.96872 8.52424 5.16172C8.05829 5.35472 7.66004 5.68155 7.37985 6.10089C7.09966 6.52023 6.95011 7.01323 6.95011 7.51757C6.95087 8.19362 7.21977 8.84177 7.69781 9.31982C8.17586 9.79786 8.824 10.0668 9.50006 10.0675ZM4.68348 5.53427C4.30719 5.53419 3.93869 5.42706 3.621 5.22539C3.30331 5.02373 3.04955 4.73585 2.88935 4.39537C2.72914 4.05489 2.6691 3.67586 2.71624 3.30253C2.76337 2.9292 2.91574 2.57699 3.15555 2.28702C3.39536 1.99704 3.71271 1.78127 4.07055 1.6649C4.42839 1.54853 4.81196 1.53635 5.17646 1.6298C5.54096 1.72325 5.87135 1.91847 6.12906 2.19266C6.38677 2.46684 6.56117 2.80869 6.63188 3.17827C6.6459 3.25209 6.68866 3.31732 6.75077 3.35961C6.78153 3.38055 6.81611 3.39523 6.85253 3.40281C6.88896 3.41038 6.92652 3.41071 6.96308 3.40377C6.99963 3.39683 7.03446 3.38276 7.06557 3.36236C7.09669 3.34196 7.12348 3.31563 7.14442 3.28488C7.16536 3.25412 7.18004 3.21954 7.18761 3.18312C7.19519 3.14669 7.19552 3.10913 7.18858 3.07258C7.10902 2.65524 6.92645 2.26439 6.65746 1.93554C6.38847 1.60669 6.04158 1.35025 5.6483 1.18953C5.25502 1.02881 4.82782 0.968893 4.4055 1.01523C3.98319 1.06156 3.57914 1.21267 3.23006 1.45484C2.88098 1.697 2.59794 2.02255 2.40664 2.40189C2.21535 2.78124 2.12186 3.20238 2.13468 3.62703C2.1475 4.05169 2.26621 4.46642 2.48004 4.83354C2.69387 5.20066 2.99603 5.50854 3.35908 5.72921C2.43852 6.00881 1.6317 6.57585 1.05679 7.34727C1.03444 7.37702 1.01818 7.41088 1.00892 7.44691C0.999655 7.48295 0.997583 7.52046 1.00282 7.55729C1.00805 7.59413 1.02049 7.62957 1.03943 7.6616C1.05836 7.69363 1.08342 7.72162 1.11317 7.74397C1.14291 7.76631 1.17677 7.78258 1.21281 7.79184C1.24885 7.8011 1.28635 7.80317 1.32319 7.79794C1.36003 7.7927 1.39547 7.78027 1.4275 7.76133C1.45953 7.7424 1.48752 7.71734 1.50987 7.68759C1.87776 7.19318 2.35658 6.79205 2.90779 6.51646C3.45901 6.24088 4.06722 6.09855 4.68348 6.10093C4.75862 6.10093 4.83069 6.07108 4.88382 6.01794C4.93696 5.96481 4.96681 5.89274 4.96681 5.8176C4.96681 5.74245 4.93696 5.67039 4.88382 5.61725C4.83069 5.56412 4.75862 5.53427 4.68348 5.53427Z"/>
</mask>
<path d="M17.8869 7.74383C17.8268 7.78896 17.7512 7.80837 17.6768 7.7978C17.6024 7.78723 17.5353 7.74754 17.4901 7.68745C17.1222 7.19308 16.6434 6.79198 16.0922 6.51642C15.5411 6.24086 14.9329 6.09854 14.3166 6.10093C14.2415 6.10093 14.1694 6.07108 14.1163 6.01794C14.0632 5.96481 14.0333 5.89274 14.0333 5.8176C14.0333 5.74245 14.0632 5.67039 14.1163 5.61725C14.1694 5.56412 14.2415 5.53427 14.3166 5.53427C14.6929 5.53419 15.0614 5.42706 15.3791 5.22539C15.6968 5.02373 15.9506 4.73585 16.1108 4.39536C16.271 4.05488 16.331 3.67584 16.2839 3.30251C16.2368 2.92918 16.0844 2.57697 15.8446 2.287C15.6048 1.99702 15.2874 1.78125 14.9295 1.66489C14.5717 1.54852 14.1881 1.53636 13.8236 1.62982C13.4591 1.72328 13.1287 1.9185 12.871 2.1927C12.6133 2.4669 12.4389 2.80875 12.3682 3.17834C12.3542 3.25217 12.3115 3.3174 12.2493 3.3597C12.1872 3.40199 12.1109 3.41787 12.037 3.40386C11.9632 3.38984 11.898 3.34707 11.8557 3.28496C11.8134 3.22284 11.7975 3.14647 11.8115 3.07265C11.8911 2.6553 12.0736 2.26444 12.3426 1.93558C12.6116 1.60672 12.9585 1.35027 13.3518 1.18954C13.745 1.02881 14.1722 0.96888 14.5946 1.0152C15.0169 1.06153 15.4209 1.21264 15.77 1.4548C16.1191 1.69696 16.4022 2.0225 16.5935 2.40186C16.7848 2.78121 16.8783 3.20234 16.8654 3.62701C16.8526 4.05167 16.7339 4.4664 16.5201 4.83353C16.3063 5.20065 16.0041 5.50854 15.641 5.72921C16.5615 6.00879 17.3683 6.57578 17.9432 7.34713C17.9655 7.37688 17.9818 7.41073 17.9911 7.44677C18.0003 7.4828 18.0024 7.52031 17.9972 7.55715C17.992 7.59398 17.9795 7.62943 17.9606 7.66146C17.9417 7.69349 17.9166 7.72148 17.8869 7.74383ZM13.8322 12.7766C13.8485 12.8101 13.8581 12.8464 13.8603 12.8836C13.8626 12.9207 13.8575 12.9579 13.8454 12.9931C13.8333 13.0283 13.8143 13.0607 13.7897 13.0886C13.765 13.1164 13.7351 13.1391 13.7016 13.1554C13.6682 13.1717 13.6319 13.1813 13.5947 13.1835C13.5576 13.1858 13.5204 13.1807 13.4852 13.1686C13.45 13.1565 13.4176 13.1375 13.3897 13.1129C13.3619 13.0882 13.3391 13.0583 13.3229 13.0248C12.9739 12.308 12.4304 11.7038 11.7544 11.2811C11.0785 10.8583 10.2973 10.6342 9.50006 10.6342C8.70282 10.6342 7.92163 10.8583 7.24568 11.2811C6.56973 11.7038 6.02625 12.308 5.67727 13.0248C5.64436 13.0924 5.58596 13.1441 5.51493 13.1686C5.44389 13.1931 5.36603 13.1883 5.29849 13.1554C5.23094 13.1225 5.17923 13.0641 5.15474 12.9931C5.13025 12.922 5.13498 12.8442 5.16789 12.7766C5.45355 12.1842 5.85828 11.657 6.3568 11.2279C6.85533 10.7988 7.43696 10.4772 8.06537 10.2829C7.44559 9.96156 6.95167 9.44139 6.66279 8.80582C6.3739 8.17025 6.30678 7.45609 6.47218 6.77782C6.63758 6.09955 7.02592 5.49646 7.57496 5.06522C8.12399 4.63398 8.80192 4.39958 9.50006 4.39958C10.1982 4.39958 10.8761 4.63398 11.4252 5.06522C11.9742 5.49646 12.3625 6.09955 12.5279 6.77782C12.6933 7.45609 12.6262 8.17025 12.3373 8.80582C12.0484 9.44139 11.5545 9.96156 10.9348 10.2829C11.5632 10.4772 12.1448 10.7989 12.6433 11.2279C13.1418 11.657 13.5466 12.1842 13.8322 12.7766ZM9.50006 10.0675C10.0044 10.0675 10.4974 9.91797 10.9167 9.63778C11.3361 9.35759 11.6629 8.95934 11.8559 8.49339C12.0489 8.02745 12.0994 7.51474 12.001 7.0201C11.9026 6.52545 11.6598 6.07109 11.3032 5.71448C10.9465 5.35786 10.4922 5.115 9.99753 5.01661C9.50289 4.91822 8.99018 4.96872 8.52424 5.16172C8.05829 5.35472 7.66004 5.68155 7.37985 6.10089C7.09966 6.52023 6.95011 7.01323 6.95011 7.51757C6.95087 8.19362 7.21977 8.84177 7.69781 9.31982C8.17586 9.79786 8.824 10.0668 9.50006 10.0675ZM4.68348 5.53427C4.30719 5.53419 3.93869 5.42706 3.621 5.22539C3.30331 5.02373 3.04955 4.73585 2.88935 4.39537C2.72914 4.05489 2.6691 3.67586 2.71624 3.30253C2.76337 2.9292 2.91574 2.57699 3.15555 2.28702C3.39536 1.99704 3.71271 1.78127 4.07055 1.6649C4.42839 1.54853 4.81196 1.53635 5.17646 1.6298C5.54096 1.72325 5.87135 1.91847 6.12906 2.19266C6.38677 2.46684 6.56117 2.80869 6.63188 3.17827C6.6459 3.25209 6.68866 3.31732 6.75077 3.35961C6.78153 3.38055 6.81611 3.39523 6.85253 3.40281C6.88896 3.41038 6.92652 3.41071 6.96308 3.40377C6.99963 3.39683 7.03446 3.38276 7.06557 3.36236C7.09669 3.34196 7.12348 3.31563 7.14442 3.28488C7.16536 3.25412 7.18004 3.21954 7.18761 3.18312C7.19519 3.14669 7.19552 3.10913 7.18858 3.07258C7.10902 2.65524 6.92645 2.26439 6.65746 1.93554C6.38847 1.60669 6.04158 1.35025 5.6483 1.18953C5.25502 1.02881 4.82782 0.968893 4.4055 1.01523C3.98319 1.06156 3.57914 1.21267 3.23006 1.45484C2.88098 1.697 2.59794 2.02255 2.40664 2.40189C2.21535 2.78124 2.12186 3.20238 2.13468 3.62703C2.1475 4.05169 2.26621 4.46642 2.48004 4.83354C2.69387 5.20066 2.99603 5.50854 3.35908 5.72921C2.43852 6.00881 1.6317 6.57585 1.05679 7.34727C1.03444 7.37702 1.01818 7.41088 1.00892 7.44691C0.999655 7.48295 0.997583 7.52046 1.00282 7.55729C1.00805 7.59413 1.02049 7.62957 1.03943 7.6616C1.05836 7.69363 1.08342 7.72162 1.11317 7.74397C1.14291 7.76631 1.17677 7.78258 1.21281 7.79184C1.24885 7.8011 1.28635 7.80317 1.32319 7.79794C1.36003 7.7927 1.39547 7.78027 1.4275 7.76133C1.45953 7.7424 1.48752 7.71734 1.50987 7.68759C1.87776 7.19318 2.35658 6.79205 2.90779 6.51646C3.45901 6.24088 4.06722 6.09855 4.68348 6.10093C4.75862 6.10093 4.83069 6.07108 4.88382 6.01794C4.93696 5.96481 4.96681 5.89274 4.96681 5.8176C4.96681 5.74245 4.93696 5.67039 4.88382 5.61725C4.83069 5.56412 4.75862 5.53427 4.68348 5.53427Z" fill="#AAAAAA"/>
<path d="M17.8869 7.74383C17.8268 7.78896 17.7512 7.80837 17.6768 7.7978C17.6024 7.78723 17.5353 7.74754 17.4901 7.68745C17.1222 7.19308 16.6434 6.79198 16.0922 6.51642C15.5411 6.24086 14.9329 6.09854 14.3166 6.10093C14.2415 6.10093 14.1694 6.07108 14.1163 6.01794C14.0632 5.96481 14.0333 5.89274 14.0333 5.8176C14.0333 5.74245 14.0632 5.67039 14.1163 5.61725C14.1694 5.56412 14.2415 5.53427 14.3166 5.53427C14.6929 5.53419 15.0614 5.42706 15.3791 5.22539C15.6968 5.02373 15.9506 4.73585 16.1108 4.39536C16.271 4.05488 16.331 3.67584 16.2839 3.30251C16.2368 2.92918 16.0844 2.57697 15.8446 2.287C15.6048 1.99702 15.2874 1.78125 14.9295 1.66489C14.5717 1.54852 14.1881 1.53636 13.8236 1.62982C13.4591 1.72328 13.1287 1.9185 12.871 2.1927C12.6133 2.4669 12.4389 2.80875 12.3682 3.17834C12.3542 3.25217 12.3115 3.3174 12.2493 3.3597C12.1872 3.40199 12.1109 3.41787 12.037 3.40386C11.9632 3.38984 11.898 3.34707 11.8557 3.28496C11.8134 3.22284 11.7975 3.14647 11.8115 3.07265C11.8911 2.6553 12.0736 2.26444 12.3426 1.93558C12.6116 1.60672 12.9585 1.35027 13.3518 1.18954C13.745 1.02881 14.1722 0.96888 14.5946 1.0152C15.0169 1.06153 15.4209 1.21264 15.77 1.4548C16.1191 1.69696 16.4022 2.0225 16.5935 2.40186C16.7848 2.78121 16.8783 3.20234 16.8654 3.62701C16.8526 4.05167 16.7339 4.4664 16.5201 4.83353C16.3063 5.20065 16.0041 5.50854 15.641 5.72921C16.5615 6.00879 17.3683 6.57578 17.9432 7.34713C17.9655 7.37688 17.9818 7.41073 17.9911 7.44677C18.0003 7.4828 18.0024 7.52031 17.9972 7.55715C17.992 7.59398 17.9795 7.62943 17.9606 7.66146C17.9417 7.69349 17.9166 7.72148 17.8869 7.74383ZM13.8322 12.7766C13.8485 12.8101 13.8581 12.8464 13.8603 12.8836C13.8626 12.9207 13.8575 12.9579 13.8454 12.9931C13.8333 13.0283 13.8143 13.0607 13.7897 13.0886C13.765 13.1164 13.7351 13.1391 13.7016 13.1554C13.6682 13.1717 13.6319 13.1813 13.5947 13.1835C13.5576 13.1858 13.5204 13.1807 13.4852 13.1686C13.45 13.1565 13.4176 13.1375 13.3897 13.1129C13.3619 13.0882 13.3391 13.0583 13.3229 13.0248C12.9739 12.308 12.4304 11.7038 11.7544 11.2811C11.0785 10.8583 10.2973 10.6342 9.50006 10.6342C8.70282 10.6342 7.92163 10.8583 7.24568 11.2811C6.56973 11.7038 6.02625 12.308 5.67727 13.0248C5.64436 13.0924 5.58596 13.1441 5.51493 13.1686C5.44389 13.1931 5.36603 13.1883 5.29849 13.1554C5.23094 13.1225 5.17923 13.0641 5.15474 12.9931C5.13025 12.922 5.13498 12.8442 5.16789 12.7766C5.45355 12.1842 5.85828 11.657 6.3568 11.2279C6.85533 10.7988 7.43696 10.4772 8.06537 10.2829C7.44559 9.96156 6.95167 9.44139 6.66279 8.80582C6.3739 8.17025 6.30678 7.45609 6.47218 6.77782C6.63758 6.09955 7.02592 5.49646 7.57496 5.06522C8.12399 4.63398 8.80192 4.39958 9.50006 4.39958C10.1982 4.39958 10.8761 4.63398 11.4252 5.06522C11.9742 5.49646 12.3625 6.09955 12.5279 6.77782C12.6933 7.45609 12.6262 8.17025 12.3373 8.80582C12.0484 9.44139 11.5545 9.96156 10.9348 10.2829C11.5632 10.4772 12.1448 10.7989 12.6433 11.2279C13.1418 11.657 13.5466 12.1842 13.8322 12.7766ZM9.50006 10.0675C10.0044 10.0675 10.4974 9.91797 10.9167 9.63778C11.3361 9.35759 11.6629 8.95934 11.8559 8.49339C12.0489 8.02745 12.0994 7.51474 12.001 7.0201C11.9026 6.52545 11.6598 6.07109 11.3032 5.71448C10.9465 5.35786 10.4922 5.115 9.99753 5.01661C9.50289 4.91822 8.99018 4.96872 8.52424 5.16172C8.05829 5.35472 7.66004 5.68155 7.37985 6.10089C7.09966 6.52023 6.95011 7.01323 6.95011 7.51757C6.95087 8.19362 7.21977 8.84177 7.69781 9.31982C8.17586 9.79786 8.824 10.0668 9.50006 10.0675ZM4.68348 5.53427C4.30719 5.53419 3.93869 5.42706 3.621 5.22539C3.30331 5.02373 3.04955 4.73585 2.88935 4.39537C2.72914 4.05489 2.6691 3.67586 2.71624 3.30253C2.76337 2.9292 2.91574 2.57699 3.15555 2.28702C3.39536 1.99704 3.71271 1.78127 4.07055 1.6649C4.42839 1.54853 4.81196 1.53635 5.17646 1.6298C5.54096 1.72325 5.87135 1.91847 6.12906 2.19266C6.38677 2.46684 6.56117 2.80869 6.63188 3.17827C6.6459 3.25209 6.68866 3.31732 6.75077 3.35961C6.78153 3.38055 6.81611 3.39523 6.85253 3.40281C6.88896 3.41038 6.92652 3.41071 6.96308 3.40377C6.99963 3.39683 7.03446 3.38276 7.06557 3.36236C7.09669 3.34196 7.12348 3.31563 7.14442 3.28488C7.16536 3.25412 7.18004 3.21954 7.18761 3.18312C7.19519 3.14669 7.19552 3.10913 7.18858 3.07258C7.10902 2.65524 6.92645 2.26439 6.65746 1.93554C6.38847 1.60669 6.04158 1.35025 5.6483 1.18953C5.25502 1.02881 4.82782 0.968893 4.4055 1.01523C3.98319 1.06156 3.57914 1.21267 3.23006 1.45484C2.88098 1.697 2.59794 2.02255 2.40664 2.40189C2.21535 2.78124 2.12186 3.20238 2.13468 3.62703C2.1475 4.05169 2.26621 4.46642 2.48004 4.83354C2.69387 5.20066 2.99603 5.50854 3.35908 5.72921C2.43852 6.00881 1.6317 6.57585 1.05679 7.34727C1.03444 7.37702 1.01818 7.41088 1.00892 7.44691C0.999655 7.48295 0.997583 7.52046 1.00282 7.55729C1.00805 7.59413 1.02049 7.62957 1.03943 7.6616C1.05836 7.69363 1.08342 7.72162 1.11317 7.74397C1.14291 7.76631 1.17677 7.78258 1.21281 7.79184C1.24885 7.8011 1.28635 7.80317 1.32319 7.79794C1.36003 7.7927 1.39547 7.78027 1.4275 7.76133C1.45953 7.7424 1.48752 7.71734 1.50987 7.68759C1.87776 7.19318 2.35658 6.79205 2.90779 6.51646C3.45901 6.24088 4.06722 6.09855 4.68348 6.10093C4.75862 6.10093 4.83069 6.07108 4.88382 6.01794C4.93696 5.96481 4.96681 5.89274 4.96681 5.8176C4.96681 5.74245 4.93696 5.67039 4.88382 5.61725C4.83069 5.56412 4.75862 5.53427 4.68348 5.53427Z" stroke="#AAAAAA" stroke-width="0.6" mask="url(#path-1-outside-1_10_2)"/>
</svg>
