<svg width="38" height="38" viewBox="0 0 38 38" fill="none" xmlns="http://www.w3.org/2000/svg">
<path d="M1.8125 15.875C1.3981 15.875 1.00067 15.7104 0.707646 15.4173C0.41462 15.1243 0.25 14.7269 0.25 14.3125V1.81561C0.25 1.40121 0.41462 1.00378 0.707646 0.710759C1.00067 0.417733 1.3981 0.253113 1.8125 0.253113H14.3125C14.7269 0.253113 15.1243 0.417733 15.4174 0.710759C15.7104 1.00378 15.875 1.40121 15.875 1.81561V14.3125C15.875 14.7269 15.7104 15.1243 15.4174 15.4173C15.1243 15.7104 14.7269 15.875 14.3125 15.875H1.8125ZM23.6875 15.875C23.2731 15.875 22.8757 15.7104 22.5826 15.4173C22.2896 15.1243 22.125 14.7269 22.125 14.3125V1.81561C22.125 1.40121 22.2896 1.00378 22.5826 0.710759C22.8757 0.417733 23.2731 0.253113 23.6875 0.253113H36.1844C36.5988 0.253113 36.9962 0.417733 37.2892 0.710759C37.5823 1.00378 37.7469 1.40121 37.7469 1.81561V14.3125C37.7469 14.7269 37.5823 15.1243 37.2892 15.4173C36.9962 15.7104 36.5988 15.875 36.1844 15.875H23.6875ZM1.8125 37.75C1.3981 37.75 1.00067 37.5854 0.707646 37.2923C0.41462 36.9993 0.25 36.6019 0.25 36.1875V23.6875C0.25 23.2731 0.41462 22.8757 0.707646 22.5826C1.00067 22.2896 1.3981 22.125 1.8125 22.125H14.3125C14.7269 22.125 15.1243 22.2896 15.4174 22.5826C15.7104 22.8757 15.875 23.2731 15.875 23.6875V36.1875C15.875 36.6019 15.7104 36.9993 15.4174 37.2923C15.1243 37.5854 14.7269 37.75 14.3125 37.75H1.8125ZM23.6875 37.75C23.2731 37.75 22.8757 37.5854 22.5826 37.2923C22.2896 36.9993 22.125 36.6019 22.125 36.1875V23.6875C22.125 23.2731 22.2896 22.8757 22.5826 22.5826C22.8757 22.2896 23.2731 22.125 23.6875 22.125H36.1844C36.5988 22.125 36.9962 22.2896 37.2892 22.5826C37.5823 22.8757 37.7469 23.2731 37.7469 23.6875V36.1875C37.7469 36.6019 37.5823 36.9993 37.2892 37.2923C36.9962 37.5854 36.5988 37.75 36.1844 37.75H23.6875Z" fill="black"/>
</svg>
