<svg width="15" height="15" viewBox="0 0 15 15" fill="none" xmlns="http://www.w3.org/2000/svg">
<path d="M0.625052 6.24927C0.459278 6.24927 0.300294 6.18342 0.183074 6.0662C0.0658536 5.94898 0 5.78999 0 5.62422V0.625052C0 0.459278 0.0658536 0.300294 0.183074 0.183074C0.300294 0.0658536 0.459278 0 0.625052 0H5.62547C5.79124 0 5.95023 0.0658536 6.06745 0.183074C6.18467 0.300294 6.25052 0.459278 6.25052 0.625052V5.62422C6.25052 5.78999 6.18467 5.94898 6.06745 6.0662C5.95023 6.18342 5.79124 6.24927 5.62547 6.24927H0.625052ZM9.37578 6.24927C9.21001 6.24927 9.05102 6.18342 8.9338 6.0662C8.81658 5.94898 8.75073 5.78999 8.75073 5.62422V0.625052C8.75073 0.459278 8.81658 0.300294 8.9338 0.183074C9.05102 0.0658536 9.21001 0 9.37578 0H14.3749C14.5407 0 14.6997 0.0658536 14.8169 0.183074C14.9341 0.300294 15 0.459278 15 0.625052V5.62422C15 5.78999 14.9341 5.94898 14.8169 6.0662C14.6997 6.18342 14.5407 6.24927 14.3749 6.24927H9.37578ZM0.625052 15C0.459278 15 0.300294 14.9341 0.183074 14.8169C0.0658536 14.6997 0 14.5407 0 14.3749V9.37453C0 9.20876 0.0658536 9.04977 0.183074 8.93255C0.300294 8.81533 0.459278 8.74948 0.625052 8.74948H5.62547C5.79124 8.74948 5.95023 8.81533 6.06745 8.93255C6.18467 9.04977 6.25052 9.20876 6.25052 9.37453V14.3749C6.25052 14.5407 6.18467 14.6997 6.06745 14.8169C5.95023 14.9341 5.79124 15 5.62547 15H0.625052ZM9.37578 15C9.21001 15 9.05102 14.9341 8.9338 14.8169C8.81658 14.6997 8.75073 14.5407 8.75073 14.3749V9.37453C8.75073 9.20876 8.81658 9.04977 8.9338 8.93255C9.05102 8.81533 9.21001 8.74948 9.37578 8.74948H14.3749C14.5407 8.74948 14.6997 8.81533 14.8169 8.93255C14.9341 9.04977 15 9.20876 15 9.37453V14.3749C15 14.5407 14.9341 14.6997 14.8169 14.8169C14.6997 14.9341 14.5407 15 14.3749 15H9.37578Z" fill="black"/>
</svg>
