<svg width="16" height="15" viewBox="0 0 16 15" fill="none" xmlns="http://www.w3.org/2000/svg">
<path d="M0.835938 7.5C0.835937 9.48912 1.60759 11.3968 2.98115 12.8033C4.35471 14.2098 6.21765 15 8.16016 15C10.1027 15 11.9656 14.2098 13.3392 12.8033C14.7127 11.3968 15.4844 9.48912 15.4844 7.5C15.4844 5.51088 14.7127 3.60322 13.3392 2.1967C11.9656 0.790176 10.1027 0 8.16016 0C6.21765 0 4.35471 0.790176 2.98115 2.1967C1.60759 3.60322 0.835938 5.51088 0.835938 7.5Z" fill="#4CAF50"/>
<path d="M11.8572 4.14282L7.11389 8.99996L5.16077 6.99996L4.1842 7.99996L7.11389 11L12.8338 5.14282L11.8572 4.14282Z" fill="white"/>
</svg>
