<svg width="15" height="15" viewBox="0 0 15 15" fill="none" xmlns="http://www.w3.org/2000/svg">
<path d="M7.5 0C11.6421 0 15 3.35786 15 7.5C15 11.6421 11.6421 15 7.5 15C3.35786 15 0 11.6421 0 7.5C0 3.35786 3.35786 0 7.5 0Z" fill="#FFE600"/>
<path d="M7.49992 4.16663C7.73004 4.16663 7.91659 4.35317 7.91659 4.58329V8.74996C7.91659 8.98008 7.73004 9.16663 7.49992 9.16663C7.2698 9.16663 7.08325 8.98008 7.08325 8.74996V4.58329C7.08325 4.35317 7.2698 4.16663 7.49992 4.16663Z" fill="white"/>
<path d="M7.49992 10.0001C7.73004 10.0001 7.91659 10.1867 7.91659 10.4168C7.91659 10.6469 7.73004 10.8335 7.49992 10.8335C7.2698 10.8335 7.08325 10.6469 7.08325 10.4168C7.08325 10.1867 7.2698 10.0001 7.49992 10.0001Z" fill="white"/>
</svg>
