<svg width="15" height="15" viewBox="0 0 15 15" fill="none" xmlns="http://www.w3.org/2000/svg">
<circle cx="7.5" cy="7.5" r="7.5" fill="white"/>
<path fill-rule="evenodd" clip-rule="evenodd" d="M7.5199 14.9998C9.44475 14.9813 11.3502 14.1821 12.7206 12.8248C14.3482 11.2125 15.1862 8.82745 14.894 6.55042C14.3928 2.64795 11.1926 0 7.47182 0C4.64528 0 1.89772 1.77248 0.692547 4.34269C-0.230068 6.31032 -0.23163 8.68602 0.692547 10.6574C1.88898 13.2095 4.59157 14.9726 7.42374 14.9998C7.4559 15.0001 7.48775 15.0001 7.5199 14.9998ZM3.56593 10.5372L6.60509 7.49801L3.5628 4.45572L4.43827 3.58056L7.48056 6.62285L10.6271 3.47628L11.5039 4.35269L8.35728 7.49957L11.5101 10.6524L10.6349 11.5279L7.48181 8.37473L4.44264 11.4139L3.56593 10.5372Z" fill="#F74545"/>
</svg>
