<svg width="18" height="18" viewBox="0 0 18 18" fill="none" xmlns="http://www.w3.org/2000/svg">
<path d="M13.68 3.725C14.4751 4.54134 15.0546 5.54266 15.3663 6.63875H17.5V10.39H15.3663C15.0549 11.487 14.4754 12.4892 13.68 13.3063L14.7487 15.1562L11.5013 17.0312L10.435 15.1813C9.32939 15.4601 8.17186 15.4601 7.06625 15.1813L5.99875 17.0312L2.75125 15.1562L3.82 13.3063C3.02456 12.4892 2.44505 11.487 2.13375 10.39H0V6.64H2.13375C2.44505 5.54302 3.02456 4.54079 3.82 3.72375L2.75 1.875L5.99625 0H6L7.0675 1.8475C8.17311 1.56865 9.33064 1.56865 10.4362 1.8475L11.5 0H11.5025L14.75 1.875L13.6812 3.725H13.68ZM12.5 8.515C12.5 7.52044 12.1049 6.56661 11.4017 5.86335C10.6984 5.16009 9.74456 4.765 8.75 4.765C7.75544 4.765 6.80161 5.16009 6.09835 5.86335C5.39509 6.56661 5 7.52044 5 8.515C5 9.50956 5.39509 10.4634 6.09835 11.1667C6.80161 11.8699 7.75544 12.265 8.75 12.265C9.74456 12.265 10.6984 11.8699 11.4017 11.1667C12.1049 10.4634 12.5 9.50956 12.5 8.515Z" fill="black"/>
</svg>
