<svg width="18" height="18" viewBox="0 0 18 18" fill="none" xmlns="http://www.w3.org/2000/svg">
<path d="M1.25 5V16.25H12.5V5H1.25ZM0.625 3.75H13.125C13.2908 3.75 13.4497 3.81585 13.5669 3.93306C13.6842 4.05027 13.75 4.20924 13.75 4.375V16.875C13.75 17.0408 13.6842 17.1997 13.5669 17.3169C13.4497 17.4342 13.2908 17.5 13.125 17.5H0.625C0.45924 17.5 0.300268 17.4342 0.183058 17.3169C0.065848 17.1997 0 17.0408 0 16.875V4.375C0 4.20924 0.065848 4.05027 0.183058 3.93306C0.300268 3.81585 0.45924 3.75 0.625 3.75ZM17.5 0.625V14.375C17.5 14.5408 17.4342 14.6997 17.3169 14.8169C17.1997 14.9342 17.0408 15 16.875 15H15V13.75H16.25V1.25H6.25V2.5H5V0.625C5 0.45924 5.06585 0.300268 5.18306 0.183058C5.30027 0.065848 5.45924 0 5.625 0H16.875C17.0408 0 17.1997 0.065848 17.3169 0.183058C17.4342 0.300268 17.5 0.45924 17.5 0.625ZM3.75 11.875H10V13.125H3.75V11.875ZM3.75 8.125H10V9.375H3.75V8.125Z" fill="black"/>
</svg>
