<svg width="17" height="17" viewBox="0 0 17 17" fill="none" xmlns="http://www.w3.org/2000/svg">
<path d="M10.405 8.455C12.0909 8.9479 13.5717 9.97389 14.6255 11.3792C15.6793 12.7845 16.2492 14.4935 16.25 16.25H0C0.000360298 14.4934 0.570177 12.7842 1.624 11.3788C2.67782 9.97344 4.15885 8.94754 5.845 8.455L8.125 11.875L10.405 8.455ZM12.1875 4.0625C12.1875 5.13994 11.7595 6.17325 10.9976 6.93512C10.2358 7.69699 9.20244 8.125 8.125 8.125C7.04756 8.125 6.01425 7.69699 5.25238 6.93512C4.49051 6.17325 4.0625 5.13994 4.0625 4.0625C4.0625 2.98506 4.49051 1.95175 5.25238 1.18988C6.01425 0.428012 7.04756 0 8.125 0C9.20244 0 10.2358 0.428012 10.9976 1.18988C11.7595 1.95175 12.1875 2.98506 12.1875 4.0625Z" fill="black"/>
</svg>
