<svg width="15" height="13" viewBox="0 0 15 13" fill="none" xmlns="http://www.w3.org/2000/svg">
<path fill-rule="evenodd" clip-rule="evenodd" d="M7.50007 3.48828C6.05514 3.48828 4.88379 4.65963 4.88379 6.10456C4.88379 7.54951 6.05514 8.72084 7.50007 8.72084C8.94502 8.72084 10.1163 7.54951 10.1163 6.10456C10.1163 4.65963 8.94502 3.48828 7.50007 3.48828ZM5.9303 6.10456C5.9303 5.23763 6.63314 4.53479 7.50007 4.53479C8.367 4.53479 9.06984 5.23763 9.06984 6.10456C9.06984 6.97149 8.367 7.67433 7.50007 7.67433C6.63314 7.67433 5.9303 6.97149 5.9303 6.10456Z" fill="#8AA8AA"/>
<path fill-rule="evenodd" clip-rule="evenodd" d="M7.5 0C4.35061 0 2.22927 1.88665 0.998072 3.48618L0.975865 3.51502C0.697423 3.87665 0.440972 4.20971 0.266993 4.60353C0.080679 5.02528 0 5.48491 0 6.10465C0 6.7244 0.080679 7.18402 0.266993 7.60577C0.440972 7.9996 0.697423 8.33267 0.975872 8.69428L0.998072 8.72309C2.22927 10.3227 4.35061 12.2093 7.5 12.2093C10.6494 12.2093 12.7707 10.3227 14.0019 8.72309L14.0241 8.69428C14.3026 8.33267 14.559 7.9996 14.733 7.60577C14.9193 7.18402 15 6.7244 15 6.10465C15 5.48491 14.9193 5.02528 14.733 4.60353C14.559 4.2097 14.3026 3.87664 14.0241 3.51501L14.0019 3.48618C12.7707 1.88665 10.6494 0 7.5 0ZM1.82736 4.12451C2.96417 2.64762 4.8142 1.04651 7.5 1.04651C10.1858 1.04651 12.0359 2.64762 13.1727 4.12451C13.4787 4.52204 13.6579 4.7596 13.7757 5.0264C13.886 5.27581 13.9535 5.58063 13.9535 6.10465C13.9535 6.62867 13.886 6.93349 13.7757 7.18291C13.6579 7.4497 13.4787 7.68726 13.1727 8.08479C12.0359 9.5617 10.1858 11.1628 7.5 11.1628C4.8142 11.1628 2.96417 9.5617 1.82736 8.08479C1.52138 7.68726 1.34214 7.4497 1.22425 7.18291C1.11407 6.93349 1.04651 6.62867 1.04651 6.10465C1.04651 5.58063 1.11407 5.27581 1.22425 5.0264C1.34214 4.7596 1.52137 4.52204 1.82736 4.12451Z" fill="#8AA8AA"/>
</svg>
