<svg width="17" height="15" viewBox="0 0 17 15" fill="none" xmlns="http://www.w3.org/2000/svg">
<path fill-rule="evenodd" clip-rule="evenodd" d="M15.2252 5C15.4908 5.11384 15.6138 5.42145 15.5 5.68707L15.019 5.48095C15.5 5.68707 15.5 5.68707 15.5 5.68707L15.4995 5.68824L15.4987 5.68998L15.4965 5.69511L15.489 5.7119C15.4828 5.72595 15.4738 5.74564 15.4623 5.77054C15.439 5.82031 15.4051 5.891 15.3601 5.9792C15.2702 6.15546 15.136 6.40235 14.9552 6.69243C14.6582 7.16897 14.2324 7.76764 13.6669 8.36247L14.3426 9.03803C14.5468 9.24238 14.5468 9.5737 14.3426 9.77805C14.1382 9.9824 13.8069 9.9824 13.6025 9.77805L12.9045 9.07996C12.4442 9.46556 11.9164 9.82744 11.3179 10.1248L11.9693 11.1258C12.1269 11.368 12.0583 11.6921 11.8161 11.8497C11.5738 12.0073 11.2497 11.9387 11.0921 11.6965L10.3322 10.5287C9.7885 10.7062 9.19984 10.8269 8.56557 10.8702V12.1088C8.56557 12.3978 8.3313 12.6321 8.04231 12.6321C7.75333 12.6321 7.51906 12.3978 7.51906 12.1088V10.8702C6.90439 10.8283 6.33247 10.7136 5.80274 10.5449L5.05339 11.6966C4.89577 11.9388 4.57166 12.0074 4.32943 11.8498C4.0872 11.6922 4.01861 11.368 4.17622 11.1258L4.81279 10.1475C4.20971 9.85298 3.67764 9.4927 3.2134 9.10759L2.54295 9.77805C2.3386 9.9824 2.00731 9.9824 1.80296 9.77805C1.59861 9.5737 1.59861 9.24245 1.80296 9.0381L2.44745 8.39359C1.87216 7.7938 1.43911 7.18784 1.13738 6.70513C0.953931 6.41167 0.817726 6.16163 0.726524 5.98305C0.680895 5.89371 0.646446 5.82207 0.622913 5.77162C0.611143 5.7464 0.602094 5.72644 0.595731 5.71221L0.588203 5.6952L0.585943 5.69L0.585183 5.68825C0.585183 5.68825 0.584658 5.68707 1.06562 5.48095L0.585183 5.68825C0.471347 5.42263 0.593874 5.11384 0.8595 5C1.12491 4.88626 1.43222 5.00901 1.54629 5.27417L1.54695 5.2757L1.55119 5.28527C1.5553 5.29447 1.562 5.30926 1.57129 5.32919C1.5899 5.36907 1.6189 5.42949 1.65853 5.5071C1.73785 5.66241 1.85935 5.88578 2.02478 6.15043C2.35661 6.68128 2.85976 7.3696 3.54632 8.00764C4.15045 8.56905 4.89069 9.08624 5.77611 9.42684C6.44205 9.68303 7.19497 9.8414 8.04231 9.8414C8.90864 9.8414 9.67631 9.67591 10.3533 9.4094C11.2334 9.063 11.9686 8.54247 12.5679 7.98001C13.2444 7.3451 13.7401 6.66361 14.0671 6.139C14.23 5.87744 14.3497 5.65695 14.4278 5.50374C14.4669 5.4272 14.4954 5.36762 14.5138 5.32833C14.5229 5.30868 14.5295 5.29413 14.5336 5.28507L14.5377 5.27566M15.2252 5C14.9596 4.8862 14.6516 5.01019 14.5377 5.27566L15.2252 5Z" fill="#8AA8AA"/>
</svg>
